<svg fill="#257755" version="1.1" id="Capa_1" xmlns="http://www.w3.org/2000/svg" xmlns:xlink="http://www.w3.org/1999/xlink" 
	 width="16" height="16" viewBox="0 0 357.682 357.682"
	 xml:space="preserve">
<g>
	<g>
		<g>
			<path d="M219.856,295.027H138.23c-1.642,0-3.369-0.252-5.455-0.816l-1.123-0.318v42.94c0,4.497,3.669,8.178,8.19,8.178h15.784
				l8.521,9.836c1.564,1.808,3.819,2.835,6.2,2.835h17.006c2.359,0,4.611-1.027,6.148-2.799l8.558-9.859h15.804
				c4.504,0,8.167-3.687,8.167-8.19v-42.791l-1.099,0.301C223.039,294.812,221.411,295.027,219.856,295.027z"/>
		</g>
		<g>
			<path d="M178.832,0C114.304,0,61.81,51.719,61.81,115.292c0,32.645,13.739,68.437,36.747,95.74l0.96,1.285
				c3,3.818,29.312,38.082,29.312,61.993c0,5.183,4.209,9.386,9.4,9.386h31.267c0.294-7.031,4.482-17.48,11.043-33.152
				c6.44-15.324,13.874-33.387,16.306-48.32l-4.504-1.988c-16.597-7.95-55.496-30.036-57.979-63.368
				c-1.132-15.871,7.211-27.478,15.285-38.737c7.211-10.061,14.021-19.527,12.742-31.071l-1.577-14.211l10.413,9.785
				c2.618,2.453,5.269,4.924,7.944,7.377c31.294,28.847,66.746,61.516,34.86,110.368l-6.064,6.516
				c0.048,0.354,0.102,0.642,0.132,0.996c2.162,18.963-8.911,45.385-17.822,66.653c-3.627,8.641-10.037,23.959-10.4,29.159
				l43.644-0.744c3.471-1.466,5.729-4.876,5.729-8.647c0-21.137,21.16-51.905,29.303-61.993c0.396-0.504,0.715-1.003,0.805-1.237
				l0.769-1.23c22.423-27.319,35.747-62.582,35.747-94.552C295.865,51.719,243.371,0,178.832,0z"/>
		</g>
		<g>
			<path d="M175.904,111.115c17.831,21.368,25.722,37.029,30.111,62.123c25.43-40.521-3.273-67.182-33.819-95.344
				c-2.201,9.926-8.185,18.249-13.982,26.349c-7.323,10.193-14.216,19.804-13.349,31.873c2.12,28.595,40.361,49.035,52.017,54.62
				l0.816,0.402c-0.048-0.667,0.024-1.411-0.048-2.065c-3.699-32.252-10.105-47.55-29.832-71.229l-1.126-1.348l8.091-6.744
				L175.904,111.115z"/>
		</g>
	</g>
</g>
</svg>